<?xml version="1.0" standalone="no"?>
<!DOCTYPE svg PUBLIC "-//W3C//DTD SVG 20010904//EN"
 "http://www.w3.org/TR/2001/REC-SVG-20010904/DTD/svg10.dtd">
<svg version="1.0" xmlns="http://www.w3.org/2000/svg"
 width="666.000000pt" height="666.000000pt" viewBox="0 0 666.000000 666.000000"
 preserveAspectRatio="xMidYMid meet">
<metadata>
Created by potrace 1.11, written by Peter Selinger 2001-2013
</metadata>
<g transform="translate(0.000000,666.000000) scale(0.100000,-0.100000)"
fill="#000000" stroke="none">
<path d="M1509 5037 c-1 -1 -2 -511 -3 -1134 -1 -1002 1 -1132 14 -1135 8 -2
830 -3 1825 -3 l1810 0 5 1110 c3 611 4 1122 2 1137 l-3 26 -1825 0 c-1003 0
-1825 0 -1825 -1z"/>
<path d="M2981 2693 c-11 -7 -22 -26 -26 -42 -3 -15 -14 -37 -25 -48 -17 -19
-32 -21 -242 -22 -123 -1 -234 -2 -247 -2 -36 1 -111 -78 -111 -117 0 -5 436
-8 1005 -8 553 0 1005 3 1005 6 0 9 -47 78 -64 95 -23 24 -60 27 -291 27 -217
0 -235 1 -254 19 -12 11 -21 31 -21 44 0 14 -9 33 -20 43 -19 15 -53 17 -355
18 -266 1 -339 -2 -354 -13z"/>
<path d="M1890 1960 l0 -241 118 3 c109 3 117 4 117 23 0 18 -8 20 -94 25
l-94 5 1 213 0 212 -24 0 -24 0 0 -240z"/>
<path d="M2192 1960 l0 -241 21 3 c12 2 24 6 27 10 3 3 5 109 4 235 l0 228
-26 3 -25 3 -1 -241z"/>
<path d="M2367 2073 c30 -71 75 -179 101 -240 26 -62 50 -113 53 -113 3 0 39
75 79 168 40 92 86 195 101 230 35 77 35 82 6 82 -24 0 -27 -5 -88 -145 -12
-27 -30 -70 -41 -95 -11 -25 -28 -63 -38 -85 l-18 -40 -12 29 c-6 17 -23 57
-39 90 -15 34 -45 103 -66 154 -35 85 -40 92 -65 92 l-28 0 55 -127z"/>
<path d="M2817 2193 c-2 -5 -3 -111 -3 -238 l1 -230 138 -3 137 -3 0 26 0 25
-113 0 -112 0 0 90 c-1 74 2 90 15 91 8 1 58 2 110 3 90 1 95 2 98 24 4 25 10
24 -123 26 l-100 1 0 73 -1 72 45 1 c25 0 76 0 114 -1 66 -1 67 -1 67 24 l0
26 -134 0 c-74 0 -137 -3 -139 -7z"/>
<path d="M3399 2183 c-1 -10 -1 -21 -1 -24 1 -3 -5 -44 -13 -90 -7 -46 -16
-113 -20 -149 -4 -36 -9 -74 -11 -85 -2 -11 -7 -41 -10 -67 -6 -47 -5 -48 20
-48 22 0 26 5 28 33 0 17 2 37 3 42 1 6 5 37 9 70 4 33 10 75 13 94 5 33 11
77 13 96 0 6 39 -68 85 -162 46 -95 88 -173 92 -173 4 0 44 74 88 165 44 91
83 165 87 165 4 0 7 -3 6 -7 -1 -5 1 -33 6 -63 8 -57 12 -84 21 -160 11 -91
15 -100 41 -100 14 0 23 3 20 8 -2 4 -7 36 -11 72 -3 35 -8 67 -10 70 -2 3 -6
31 -9 61 -3 30 -8 63 -10 74 -2 11 -7 46 -11 79 -8 73 -15 109 -20 115 -2 2
-10 -9 -17 -25 -7 -16 -16 -32 -21 -35 -5 -3 -8 -9 -7 -13 2 -9 -141 -295
-151 -302 -4 -2 -49 81 -100 186 -51 104 -96 190 -101 190 -4 0 -9 -8 -9 -17z"/>
<path d="M3972 2003 c3 -214 4 -219 63 -265 40 -31 147 -33 187 -3 58 44 63
63 66 273 l2 192 -25 0 c-24 0 -25 -2 -25 -72 0 -40 -1 -126 -3 -191 l-2 -119
-33 -29 c-47 -42 -114 -39 -162 9 -12 13 -16 52 -18 209 l-4 193 -25 0 -25 0
4 -197z"/>
<path d="M4403 1963 c2 -238 2 -238 24 -241 23 -3 23 -3 25 176 l3 180 97
-112 c54 -61 116 -131 139 -156 22 -25 49 -56 59 -70 32 -44 33 -39 31 253
l-1 207 -25 0 -25 0 0 -177 0 -178 -59 63 c-33 35 -74 81 -91 101 -17 21 -45
54 -63 73 -18 19 -49 53 -69 76 -20 23 -39 42 -41 42 -3 0 -5 -107 -4 -237z"/>
</g>
</svg>
